<svg width="32" height="32" viewBox="0 0 32 32" xmlns="http://www.w3.org/2000/svg">
  <!-- Dark gray outer curves -->
  <path fill="#374151" d="M6 4 C3 4, 1 7, 1 10 C1 13, 3 16, 6 16 C8 16, 10 14, 10 12 C10 10, 8 8, 6 8 C4 8, 2 10, 2 12"/>
  <path fill="#374151" d="M26 20 C29 20, 31 17, 31 14 C31 11, 29 8, 26 8 C24 8, 22 10, 22 12 C22 14, 24 16, 26 16 C28 16, 30 14, 30 12"/>
  
  <!-- Red central S curve -->
  <path fill="#dc2626" d="M8 6 C6 6, 4 8, 4 10 C4 12, 6 14, 8 14 C10 14, 12 12, 12 10 C12 8, 10 6, 8 6 Z M24 10 C24 12, 26 14, 28 14 C30 14, 32 12, 32 10 C32 8, 30 6, 28 6 C26 6, 24 8, 24 10 Z"/>
  
  <!-- Connecting middle section -->
  <path fill="#dc2626" d="M12 10 C12 12, 14 14, 16 14 C18 14, 20 12, 20 10 C20 8, 18 6, 16 6 C14 6, 12 8, 12 10 Z"/>
</svg>